HIERARCHY
ROOT joint_0
{
	OFFSET 0.000000 0.000000 0.000000
	CHANNELS 6 Xposition Yposition Zposition Zrotation Yrotation Xrotation 
	JOINT joint_1
	{
		OFFSET 0.511002 1.944000 108.288940
		CHANNELS 3 Zrotation Yrotation Xrotation
		JOINT joint_2
		{
			OFFSET -9.074005 1.512993 98.440063
			CHANNELS 3 Zrotation Yrotation Xrotation
			JOINT joint_3
			{
				OFFSET -8.590996 1.815002 98.366943
				CHANNELS 3 Zrotation Yrotation Xrotation
				JOINT joint_4
				{
					OFFSET 2.489998 3.531998 136.462036
					CHANNELS 3 Zrotation Yrotation Xrotation
					JOINT joint_5
					{
						OFFSET 22.708000 2.955002 80.357056
						CHANNELS 3 Zrotation Yrotation Xrotation
						End Site
						{
							OFFSET 0.000000 0.000000 0.000000
						}
					}
				}
				JOINT joint_6
				{
					OFFSET 2.860001 -27.684998 77.234009
					CHANNELS 3 Zrotation Yrotation Xrotation
					JOINT joint_7
					{
						OFFSET 5.449997 -131.244003 -18.851929
						CHANNELS 3 Zrotation Yrotation Xrotation
						JOINT joint_8
						{
							OFFSET 35.757000 -24.661995 -264.074097
							CHANNELS 3 Zrotation Yrotation Xrotation
							JOINT joint_9
							{
								OFFSET 49.392001 -1.747002 -239.960938
								CHANNELS 3 Zrotation Yrotation Xrotation
								End Site
								{
									OFFSET 0.000000 0.000000 0.000000
								}
							}
						}
					}
				}
				JOINT joint_10
				{
					OFFSET -0.127998 31.625000 75.753052
					CHANNELS 3 Zrotation Yrotation Xrotation
					JOINT joint_11
					{
						OFFSET -5.618004 131.132996 -19.557007
						CHANNELS 3 Zrotation Yrotation Xrotation
						JOINT joint_12
						{
							OFFSET 46.488998 30.127991 -261.826050
							CHANNELS 3 Zrotation Yrotation Xrotation
							JOINT joint_13
							{
								OFFSET 66.021003 0.474030 -235.934937
								CHANNELS 3 Zrotation Yrotation Xrotation
								End Site
								{
									OFFSET 0.000000 0.000000 0.000000
								}
							}
						}
					}
				}
			}
		}
	}
	JOINT joint_14
	{
		OFFSET 15.887001 -78.871004 -94.561035
		CHANNELS 3 Zrotation Yrotation Xrotation
		JOINT joint_15
		{
			OFFSET -4.133003 6.714001 -473.615967
			CHANNELS 3 Zrotation Yrotation Xrotation
			JOINT joint_16
			{
				OFFSET -19.541000 5.340000 -399.613007
				CHANNELS 3 Zrotation Yrotation Xrotation
				JOINT joint_17
				{
					OFFSET 164.317001 41.657999 -73.195000
					CHANNELS 3 Zrotation Yrotation Xrotation
					End Site
					{
						OFFSET 0.000000 0.000000 0.000000
					}
				}
			}
		}
	}
	JOINT joint_18
	{
		OFFSET 6.513000 77.960991 -96.406982
		CHANNELS 3 Zrotation Yrotation Xrotation
		JOINT joint_19
		{
			OFFSET -10.660004 -8.518997 -473.485016
			CHANNELS 3 Zrotation Yrotation Xrotation
			JOINT joint_20
			{
				OFFSET -36.967995 -11.098999 -398.260010
				CHANNELS 3 Zrotation Yrotation Xrotation
				JOINT joint_21
				{
					OFFSET 166.067997 30.363998 -74.785000
					CHANNELS 3 Zrotation Yrotation Xrotation
					End Site
					{
						OFFSET 0.000000 0.000000 0.000000
					}
				}
			}
		}
	}
}
MOTION
Frames: 12
Frame Time: 0.016667
-2796.628174 903.478333 1060.881958 -0.585893 2.438699 -0.273292 -0.450889 -1.522112 -0.913288 -0.392024 0.193833 0.193280 -0.411110 -0.319909 -0.114617 -0.042586 -2.700405 0.529031 0.000000 0.000000 0.000000 -1.785740 1.778151 -0.020416 0.065195 1.535483 0.453154 -0.285597 2.499614 -1.316167 0.000000 0.000000 0.000000 -3.875780 2.191385 -0.654904 0.182463 2.788346 -0.917908 1.280373 4.048950 4.341480 0.000000 0.000000 0.000000 -3.097484 -1.951525 -4.042593 -3.176089 -1.655603 -0.046167 -3.062455 1.561540 -1.740950 0.000000 0.000000 0.000000 -0.258053 -4.093728 5.452938 -0.132397 -3.067910 -0.757304 -0.334091 5.105471 -1.084052 0.000000 0.000000 0.000000 
-2796.620850 903.461548 1060.871948 -0.600980 2.424885 -0.275366 -0.447571 -1.523352 -0.919542 -0.388228 0.193803 0.193513 -0.407418 -0.319510 -0.115467 -0.041009 -2.696214 0.522986 0.000000 0.000000 0.000000 -1.776625 1.783292 -0.002996 0.064612 1.541564 0.459622 -0.288726 2.500664 -1.331545 0.000000 0.000000 0.000000 -3.876932 2.196358 -0.649948 0.182929 2.793646 -0.910609 1.278158 4.054335 4.333364 0.000000 0.000000 0.000000 -3.091550 -1.939294 -4.039684 -3.170201 -1.653684 -0.048332 -3.056763 1.563276 -1.738897 0.000000 0.000000 0.000000 -0.250327 -4.077458 5.460632 -0.124101 -3.065610 -0.764684 -0.326725 5.106642 -1.080986 0.000000 0.000000 0.000000 
-2796.599609 903.450073 1060.864990 -0.618311 2.410487 -0.277090 -0.444383 -1.525437 -0.926960 -0.384276 0.194147 0.195955 -0.403873 -0.318510 -0.117373 -0.039391 -2.690868 0.516638 0.000000 0.000000 0.000000 -1.765654 1.788154 0.014369 0.064262 1.547706 0.468551 -0.292825 2.504160 -1.351663 0.000000 0.000000 0.000000 -3.876471 2.200292 -0.645857 0.183158 2.797814 -0.899978 1.274698 4.061976 4.320828 0.000000 0.000000 0.000000 -3.084754 -1.924950 -4.037482 -3.163513 -1.654063 -0.050641 -3.050219 1.567622 -1.737129 0.000000 0.000000 0.000000 -0.241633 -4.058062 5.468164 -0.114690 -3.066371 -0.773262 -0.318508 5.110044 -1.077948 0.000000 0.000000 0.000000 
-2796.564697 903.452881 1060.850952 -0.638072 2.393921 -0.279014 -0.441104 -1.524718 -0.932719 -0.380414 0.191880 0.196658 -0.400223 -0.316324 -0.118202 -0.038026 -2.682443 0.510740 0.000000 0.000000 0.000000 -1.757710 1.793028 0.030821 0.063811 1.553343 0.474202 -0.295416 2.505334 -1.364427 0.000000 0.000000 0.000000 -3.875535 2.204338 -0.641161 0.183087 2.801749 -0.894104 1.272290 4.068333 4.311885 0.000000 0.000000 0.000000 -3.076880 -1.906895 -4.036165 -3.155818 -1.656428 -0.053187 -3.042687 1.572211 -1.734984 0.000000 0.000000 0.000000 -0.231792 -4.035703 5.474966 -0.104091 -3.065673 -0.781730 -0.309067 5.110464 -1.073817 0.000000 0.000000 0.000000 
-2796.516113 903.472107 1060.831055 -0.657769 2.388809 -0.281183 -0.439271 -1.539422 -0.937355 -0.378383 0.188980 0.197367 -0.398397 -0.314485 -0.118940 -0.037085 -2.667099 0.505367 0.000000 0.000000 0.000000 -1.751408 1.799529 0.045550 0.063172 1.560191 0.473364 -0.294779 2.503357 -1.361406 0.000000 0.000000 0.000000 -3.870702 2.211089 -0.634879 0.182863 2.807313 -0.897713 1.272577 4.072121 4.312264 0.000000 0.000000 0.000000 -3.068566 -1.899441 -4.035443 -3.147633 -1.661098 -0.055155 -3.034627 1.577176 -1.732694 0.000000 0.000000 0.000000 -0.221288 -4.027057 5.480584 -0.093228 -3.060731 -0.789360 -0.299152 5.108455 -1.069031 0.000000 0.000000 0.000000 
-2796.453857 903.504639 1060.806030 -0.680522 2.382062 -0.283321 -0.438013 -1.552064 -0.941289 -0.376904 0.182572 0.197648 -0.397165 -0.309815 -0.119426 -0.036431 -2.649499 0.500707 0.000000 0.000000 0.000000 -1.743994 1.805794 0.060284 0.062310 1.566828 0.468529 -0.292557 2.498801 -1.350658 0.000000 0.000000 0.000000 -3.861800 2.217733 -0.628302 0.182330 2.811939 -0.905205 1.273798 4.074960 4.315844 0.000000 0.000000 0.000000 -3.059132 -1.888966 -4.035964 -3.138407 -1.667732 -0.056780 -3.025483 1.583685 -1.730316 0.000000 0.000000 0.000000 -0.209252 -4.016205 5.485057 -0.080836 -3.053862 -0.796578 -0.287655 5.104357 -1.063157 0.000000 0.000000 0.000000 
-2796.375977 903.548523 1060.771973 -0.716717 2.334861 -0.285959 -0.433674 -1.517478 -0.945527 -0.371172 0.173965 0.198944 -0.392044 -0.297248 -0.120965 -0.035906 -2.641061 0.497852 0.000000 0.000000 0.000000 -1.732586 1.806347 0.079710 0.061176 1.568094 0.461703 -0.291535 2.493509 -1.345790 0.000000 0.000000 0.000000 -3.855251 2.217431 -0.625027 0.181754 2.810363 -0.906645 1.273627 4.076989 4.314495 0.000000 0.000000 0.000000 -3.044462 -1.835747 -4.038460 -3.124296 -1.672952 -0.060374 -3.011689 1.589320 -1.725681 0.000000 0.000000 0.000000 -0.192782 -3.957303 5.489852 -0.062918 -3.047607 -0.805393 -0.270951 5.094366 -1.053879 0.000000 0.000000 0.000000 
-2796.312256 903.599121 1060.725952 -0.766331 2.237367 -0.293451 -0.425595 -1.423570 -0.945944 -0.360607 0.158117 0.200797 -0.382604 -0.270706 -0.123618 -0.035096 -2.640576 0.495170 0.000000 0.000000 0.000000 -1.715553 1.798239 0.104894 0.059869 1.561356 0.456293 -0.293479 2.487863 -1.355465 0.000000 0.000000 0.000000 -3.854871 2.206255 -0.624345 0.180744 2.799145 -0.901652 1.271857 4.078695 4.307384 0.000000 0.000000 0.000000 -3.024949 -1.732035 -4.037541 -3.105610 -1.673782 -0.067078 -2.993601 1.594937 -1.719167 0.000000 0.000000 0.000000 -0.172522 -3.842431 5.500604 -0.039863 -3.039858 -0.816443 -0.249427 5.079541 -1.041563 0.000000 0.000000 0.000000 
-2796.232666 903.660095 1060.671021 -0.829449 2.098879 -0.301131 -0.414805 -1.280844 -0.946932 -0.346118 0.137838 0.203466 -0.369633 -0.234652 -0.127132 -0.034245 -2.649367 0.493724 0.000000 0.000000 0.000000 -1.693137 1.784064 0.134265 0.058415 1.549122 0.449512 -0.296604 2.481828 -1.370928 0.000000 0.000000 0.000000 -3.855498 2.187970 -0.626780 0.179618 2.781340 -0.890615 1.268638 4.079733 4.295159 0.000000 0.000000 0.000000 -3.000237 -1.584713 -4.038759 -3.082143 -1.673877 -0.075749 -2.970937 1.600699 -1.710684 0.000000 0.000000 0.000000 -0.148026 -3.678761 5.511448 -0.011515 -3.032884 -0.828815 -0.222912 5.059690 -1.026098 0.000000 0.000000 0.000000 
-2796.048584 903.742615 1060.623047 -0.918465 1.913851 -0.295950 -0.398991 -1.081548 -0.959735 -0.324520 0.119527 0.205510 -0.349592 -0.192300 -0.130794 -0.033845 -2.685992 0.497984 0.000000 0.000000 0.000000 -1.663156 1.767071 0.174431 0.055615 1.534254 0.426736 -0.297460 2.473076 -1.375253 0.000000 0.000000 0.000000 -3.850144 2.166371 -0.640803 0.180195 2.760875 -0.861654 1.262090 4.078856 4.271538 0.000000 0.000000 0.000000 -2.966045 -1.382272 -4.059657 -3.050271 -1.678258 -0.082299 -2.939886 1.607608 -1.698814 0.000000 0.000000 0.000000 -0.114296 -3.449385 5.505568 0.027122 -3.034200 -0.839211 -0.186491 5.031687 -1.004713 0.000000 0.000000 0.000000 
-2795.882812 903.832703 1060.577026 -1.019471 1.634560 -0.261599 -0.382106 -0.783449 -1.006594 -0.297291 0.099380 0.205151 -0.323876 -0.137578 -0.133574 -0.037341 -2.744518 0.519541 0.000000 0.000000 0.000000 -1.580147 1.738967 0.246136 0.049411 1.513903 0.376665 -0.298718 2.465948 -1.381291 0.000000 0.000000 0.000000 -3.844129 2.127307 -0.676666 0.184270 2.725586 -0.803366 1.257429 4.085354 4.254201 0.000000 0.000000 0.000000 -2.925545 -1.082929 -4.118077 -3.013880 -1.678236 -0.089924 -2.904555 1.611966 -1.684423 0.000000 0.000000 0.000000 -0.076082 -3.118179 5.466111 0.071442 -3.028622 -0.847889 -0.144138 4.992822 -0.978684 0.000000 0.000000 0.000000 
-2795.613281 903.942322 1060.537964 -1.147174 1.307660 -0.213581 -0.360180 -0.424847 -1.066818 -0.262732 0.076637 0.205567 -0.291238 -0.073450 -0.137795 -0.041524 -2.833696 0.548136 0.000000 0.000000 0.000000 -1.489636 1.707225 0.328339 0.042085 1.490120 0.311766 -0.297768 2.456739 -1.376497 0.000000 0.000000 0.000000 -3.832283 2.084507 -0.722264 0.189922 2.687076 -0.728435 1.249468 4.089211 4.225604 0.000000 0.000000 0.000000 -2.875361 -0.727031 -4.196544 -2.969212 -1.683233 -0.095351 -2.860929 1.618505 -1.666939 0.000000 0.000000 0.000000 -0.028574 -2.719804 5.409667 0.125973 -3.031965 -0.854865 -0.092022 4.947717 -0.947148 0.000000 0.000000 0.000000 
